<!DOCTYPE svg PUBLIC "-//W3C//DTD SVG 1.1//EN" "http://www.w3.org/Graphics/SVG/1.1/DTD/svg11.dtd">
<!-- Uploaded to: SVG Repo, www.svgrepo.com, Transformed by: SVG Repo Mixer Tools -->
<svg fill="#eebee7" version="1.1" id="Capa_1" xmlns="http://www.w3.org/2000/svg" xmlns:xlink="http://www.w3.org/1999/xlink" width="800px" height="800px" viewBox="0 0 92.056 92.056" xml:space="preserve" stroke="#eebee7">
<g id="SVGRepo_bgCarrier" stroke-width="0"/>
<g id="SVGRepo_tracerCarrier" stroke-linecap="round" stroke-linejoin="round"/>
<g id="SVGRepo_iconCarrier"> <g> <path d="M77.307,5.72c-21.061,0-56.772,7.009-52.784,55.138L0,82.992l3.017,3.344l24.552-22.151c2.21,0.28,5.621,0.595,9.731,0.595 c19.46,0,54.756-7.009,54.756-57.896C92.056,6.887,85.902,5.72,77.307,5.72z M85.759,24.101L38.253,24.09 c5.838-6.54,13.779-10.131,21.771-12.01c6.009-1.408,12.06-1.85,17.282-1.85c4.137,0,7.686,0.287,10.164,0.563 c-0.104,2.64-0.309,5.176-0.623,7.612C86.45,21.433,86.478,21.385,85.759,24.101z"/> </g> </g>
</svg>