<?xml version="1.0" standalone="no"?>
<!DOCTYPE svg PUBLIC "-//W3C//DTD SVG 20010904//EN"
 "http://www.w3.org/TR/2001/REC-SVG-20010904/DTD/svg10.dtd">
<svg version="1.0" xmlns="http://www.w3.org/2000/svg"
 width="300.000000pt" height="300.000000pt" viewBox="0 0 300.000000 300.000000"
 preserveAspectRatio="xMidYMid meet">
<metadata>
Created by potrace 1.10, written by Peter Selinger 2001-2011
</metadata>
<g transform="translate(0.000000,300.000000) scale(0.100000,-0.100000)"
fill="#000000" stroke="none">
<path d="M1212 2505 c-7 -14 -12 -46 -12 -70 0 -43 -1 -45 -29 -45 -75 0 -106
-34 -86 -93 31 -90 99 -154 175 -164 l40 -6 -25 -25 c-14 -13 -25 -29 -25 -33
0 -5 -8 -9 -18 -9 -10 0 -35 -9 -55 -19 -37 -19 -37 -19 -48 1 -16 29 -70 58
-110 58 -58 0 -104 -65 -97 -140 2 -28 -1 -35 -17 -39 -59 -11 -107 -80 -85
-123 21 -39 61 -77 91 -83 36 -8 38 -25 3 -25 -15 0 -38 -12 -55 -29 -25 -25
-29 -37 -29 -83 0 -29 8 -71 18 -92 l18 -40 -48 -46 c-44 -42 -48 -51 -48 -92
0 -30 7 -54 20 -71 28 -36 99 -61 155 -55 45 6 45 5 64 -36 27 -62 72 -96 127
-96 52 0 86 19 114 66 l21 33 39 -39 c37 -37 63 -47 130 -49 14 0 44 -3 68 -7
l42 -6 0 131 c0 72 4 131 9 131 14 0 21 -58 21 -163 -1 -98 -1 -99 22 -95 22
3 23 6 19 71 -3 70 1 76 33 52 37 -28 113 -8 135 34 10 18 11 18 50 -1 36 -18
46 -18 97 -8 45 10 65 20 100 56 52 51 58 91 20 121 -13 11 -27 33 -31 51 -4
18 -18 46 -32 62 -24 29 -24 30 -6 54 11 16 24 23 33 19 98 -42 245 35 278
146 16 51 15 58 -8 81 -13 13 -33 20 -60 20 -38 0 -40 2 -40 30 0 17 -7 46
-14 65 -13 30 -20 35 -49 35 -51 0 -124 -29 -161 -64 l-34 -31 -16 29 c-9 16
-15 30 -14 31 80 53 111 102 112 177 1 39 -4 52 -27 75 -26 26 -33 28 -111 28
l-83 0 -18 43 c-38 93 -102 135 -170 112 -41 -14 -94 -71 -102 -111 -5 -28
-17 -37 -27 -21 -2 4 0 28 6 52 21 94 -31 188 -133 239 -78 39 -121 41 -137 6z
m119 -46 c47 -23 95 -79 104 -119 8 -37 -3 -140 -15 -140 -11 0 -20 27 -20 63
0 18 -5 39 -10 47 -8 11 -9 7 -4 -15 l7 -30 -45 42 c-25 23 -60 49 -77 57 -25
13 -31 23 -31 49 0 17 3 42 6 55 7 25 21 24 85 -9z m-63 -138 c38 -20 102 -83
102 -101 0 -13 4 -13 -58 10 -30 11 -51 16 -48 11 4 -5 28 -17 55 -26 81 -27
83 -42 3 -40 -71 2 -112 18 -149 57 -28 29 -56 95 -47 110 10 15 95 3 142 -21z
m441 -59 c39 -57 47 -109 24 -169 -5 -14 0 -12 25 9 41 35 95 52 144 45 52 -7
68 -22 68 -66 0 -65 -58 -130 -132 -146 l-28 -7 30 -25 c42 -35 60 -74 60
-126 0 -57 -26 -82 -84 -81 -97 2 -156 61 -156 157 0 31 -5 59 -11 63 -8 4 -9
-13 -4 -59 9 -82 -3 -111 -41 -96 -38 14 -92 -16 -117 -64 -16 -31 -22 -35
-34 -25 -8 6 -12 20 -9 31 3 11 -2 33 -10 50 -36 68 16 147 112 168 30 7 58
17 61 22 7 11 -48 0 -96 -19 -86 -36 -178 4 -211 91 -15 40 2 70 52 89 76 31
145 9 216 -67 53 -59 65 -61 18 -4 -60 74 -69 122 -36 194 25 56 71 85 111 71
16 -5 37 -22 48 -36z m-247 -93 c16 -12 27 -23 25 -26 -7 -6 -77 29 -77 39 0
14 21 9 52 -13z m-402 -124 c30 -16 60 -61 60 -90 0 -12 8 -7 26 14 28 34 90
57 110 40 28 -23 36 -65 20 -102 -16 -40 -50 -61 -116 -71 l-44 -7 24 25 c13
14 20 29 16 33 -3 4 -14 -4 -23 -16 -12 -18 -17 -20 -24 -10 -7 11 -9 10 -9
-3 0 -19 -8 -22 -34 -12 -8 3 -12 12 -9 20 3 8 0 14 -6 14 -16 0 -13 -30 4
-36 22 -9 18 -31 -6 -44 -11 -7 -18 -14 -15 -17 3 -4 15 2 26 12 15 14 23 16
32 7 8 -8 14 -8 22 3 15 20 96 34 127 23 36 -13 59 -48 59 -91 0 -32 -4 -39
-27 -48 -38 -14 -82 -4 -115 28 l-28 27 0 -33 c0 -65 -87 -115 -132 -74 -19
17 -24 72 -9 101 8 15 4 17 -30 14 -34 -4 -44 1 -75 32 -30 30 -34 38 -24 56
19 35 73 55 114 43 l35 -11 -22 30 c-25 34 -29 93 -8 132 16 30 39 33 81 11z
m320 -173 l24 -9 -34 -32 -35 -31 -23 23 c-23 23 -23 24 -5 55 15 27 20 29 33
17 9 -8 26 -18 40 -23z m761 -14 c7 -44 4 -50 -39 -72 -18 -9 -52 -34 -74 -54
l-41 -37 7 28 c4 17 3 26 -2 23 -10 -6 -23 -90 -22 -138 0 -17 -9 -34 -26 -47
-35 -27 -42 -20 -15 15 19 24 21 35 15 104 -7 85 2 114 53 162 30 28 97 58
123 55 9 -1 17 -17 21 -39z m-747 -82 c-4 -16 -1 -25 10 -29 9 -4 16 -16 16
-27 0 -15 -7 -20 -25 -20 -30 0 -43 24 -25 45 11 13 10 14 -4 9 -21 -8 -21 4
1 28 22 25 35 23 27 -6z m870 -15 c3 -4 -6 -31 -20 -60 -43 -85 -119 -116
-229 -92 l-30 6 30 12 c17 6 47 17 68 23 56 17 40 22 -21 6 -29 -8 -52 -10
-52 -6 0 21 59 75 105 96 50 24 138 33 149 15z m-626 -61 c18 -11 39 -35 47
-53 l13 -32 11 29 c9 23 15 27 34 22 49 -15 97 -18 126 -8 29 10 31 9 31 -14
0 -36 -25 -91 -49 -106 -24 -15 -28 -30 -6 -22 24 10 83 -16 110 -47 44 -53
27 -98 -46 -119 -55 -16 -97 -2 -146 48 -49 51 -59 48 -13 -5 80 -91 -19 -244
-106 -162 -53 50 -49 138 9 183 20 16 26 26 16 26 -8 0 -26 -14 -38 -31 -25
-34 -75 -59 -118 -59 -34 0 -88 31 -103 60 -23 43 52 110 122 110 l37 0 -24
24 c-61 61 -35 176 40 176 11 0 35 -9 53 -20z m-321 -104 c7 -59 -1 -87 -33
-119 l-27 -27 36 0 c49 0 67 -9 67 -33 0 -11 19 -38 42 -60 l42 -40 -30 -24
c-73 -59 -163 -48 -229 30 -19 22 -37 38 -40 35 -3 -2 15 -25 40 -50 41 -42
45 -50 45 -95 0 -48 -16 -84 -50 -110 -61 -49 -164 49 -145 137 l7 30 -38 -22
c-49 -29 -124 -30 -162 -1 -40 30 -41 72 -2 117 43 48 81 57 166 40 37 -8 69
-12 72 -9 6 6 -10 11 -80 25 -64 13 -97 42 -118 106 -14 41 -7 103 12 116 19
11 58 10 58 -2 0 -25 50 -60 84 -60 43 0 53 -16 62 -94 4 -31 10 -56 14 -56 4
0 3 26 -1 58 -10 67 1 109 36 142 20 19 31 21 67 17 24 -3 52 -2 63 2 27 12
36 0 42 -53z m108 45 c3 -11 14 -23 25 -26 10 -3 21 -17 24 -32 8 -29 7 -30
-15 -35 -16 -3 -89 81 -89 102 0 19 48 11 55 -9z m-15 -123 c0 -14 -12 -8 -31
15 -10 12 -18 29 -19 37 0 15 49 -37 50 -52z m619 -177 c33 -21 -62 -101 -120
-101 -46 0 -86 22 -86 47 0 18 3 21 12 13 19 -16 91 -1 128 26 36 25 46 27 66
15z m-546 -100 c18 -10 27 -22 27 -38 0 -24 0 -24 -39 9 -22 18 -37 36 -34 41
3 4 8 7 11 5 4 -2 19 -10 35 -17z m-55 -47 c35 -21 87 -83 78 -92 -4 -3 -21 1
-37 11 -32 18 -65 24 -39 7 11 -7 7 -10 -19 -10 -27 0 -42 9 -73 40 -21 23
-38 45 -38 50 0 17 100 11 128 -6z"/>
<path d="M1733 2014 c-3 -8 -17 -20 -31 -25 -14 -5 -23 -12 -20 -14 10 -10 78
26 78 40 0 20 -19 19 -27 -1z"/>
<path d="M1630 1959 c0 -25 33 -22 38 4 2 12 -3 17 -17 17 -15 0 -21 -6 -21
-21z"/>
<path d="M1710 1940 c14 -4 41 -8 60 -8 32 0 33 1 10 8 -14 4 -41 8 -60 8 -32
0 -33 -1 -10 -8z"/>
<path d="M1686 1905 c16 -25 34 -33 34 -17 0 10 -33 42 -44 42 -3 0 1 -11 10
-25z"/>
<path d="M1697 1597 c-4 -10 -7 -35 -6 -55 l1 -37 9 34 c6 18 9 43 7 55 -3 19
-4 19 -11 3z"/>
<path d="M1773 1509 c-18 -5 -35 -14 -39 -20 -8 -13 27 -4 66 17 29 15 19 16
-27 3z"/>
<path d="M1681 1477 c-9 -11 -8 -17 4 -27 12 -10 16 -9 21 5 9 23 -10 40 -25
22z"/>
<path d="M1045 1462 c27 -29 51 -52 53 -52 9 0 -18 31 -58 65 l-45 39 50 -52z"/>
<path d="M1182 1424 c-24 -14 -42 -27 -40 -29 6 -6 98 39 98 48 0 12 -13 8
-58 -19z"/>
<path d="M1107 1394 c-14 -14 -7 -35 11 -32 9 2 17 10 17 17 0 16 -18 25 -28
15z"/>
<path d="M1170 1380 c-23 -7 -23 -8 -3 -9 12 -1 25 -6 29 -12 4 -7 10 -7 16
-1 6 6 7 15 4 21 -8 12 -11 12 -46 1z"/>
<path d="M1023 1365 c-8 -24 3 -29 27 -12 18 13 19 15 5 21 -23 8 -25 8 -32
-9z"/>
<path d="M1107 1320 c-3 -14 -2 -29 3 -34 16 -16 23 1 13 31 l-9 27 -7 -24z"/>
</g>
</svg>
