<?xml version="1.0" standalone="no"?>
<!DOCTYPE svg PUBLIC "-//W3C//DTD SVG 20010904//EN"
        "http://www.w3.org/TR/2001/REC-SVG-20010904/DTD/svg10.dtd">
<svg version="1.0" xmlns="http://www.w3.org/2000/svg"
     width="1024.000000pt" height="1024.000000pt" viewBox="0 0 1024.000000 1024.000000"
     preserveAspectRatio="xMidYMid meet">

    <g transform="translate(0.000000,1024.000000) scale(0.100000,-0.100000)"
       fill="#000000" stroke="none">
        <path d="M4166 8610 c-14 -17 -38 -68 -53 -113 -23 -71 -27 -99 -27 -209 l-1
-128 -82 0 c-179 0 -289 -51 -322 -149 -39 -117 80 -379 248 -549 48 -48 154
-121 215 -146 58 -24 189 -56 230 -56 20 0 36 -2 36 -5 0 -3 -24 -29 -53 -58
-34 -34 -62 -72 -77 -109 l-23 -56 -61 -7 c-84 -9 -172 -39 -235 -80 -54 -36
-71 -42 -71 -26 0 20 -82 111 -137 154 -100 77 -156 100 -254 105 -72 4 -93 1
-137 -18 -89 -38 -164 -140 -197 -266 -15 -58 -22 -265 -10 -295 5 -13 -2 -18
-30 -23 -59 -11 -193 -85 -244 -135 -71 -70 -95 -121 -96 -206 0 -60 5 -80 32
-135 48 -95 138 -184 229 -226 40 -19 96 -39 123 -46 58 -13 70 -38 19 -38
-47 0 -152 -27 -197 -50 -56 -28 -107 -93 -133 -169 -19 -56 -23 -87 -23 -196
0 -115 3 -140 28 -220 16 -49 46 -122 68 -162 l39 -72 -63 -33 c-91 -47 -195
-156 -243 -253 -38 -77 -39 -81 -39 -189 0 -101 2 -116 27 -162 35 -67 128
-151 209 -191 123 -60 299 -79 444 -48 38 8 73 15 76 15 4 0 10 -17 14 -37 4
-21 18 -65 32 -97 60 -143 160 -254 280 -313 69 -33 89 -38 168 -41 106 -5
174 16 253 76 67 50 158 160 188 227 14 30 27 55 28 55 2 0 16 -19 31 -41 61
-92 152 -172 261 -227 64 -33 163 -45 251 -32 51 8 78 8 86 1 7 -5 45 -21 84
-35 57 -21 89 -26 168 -26 108 0 281 18 308 32 15 8 17 30 17 234 l0 225 38
-31 c120 -96 296 -93 431 9 44 33 100 92 120 129 6 10 25 4 82 -27 103 -55
183 -74 278 -66 111 10 184 30 290 82 120 58 226 159 284 272 69 135 46 215
-87 303 l-63 43 -6 65 c-9 107 -81 237 -171 312 l-36 29 76 83 c74 81 77 83
102 70 54 -27 148 -44 239 -44 80 0 108 5 200 35 147 49 230 100 333 204 99
101 168 220 200 347 26 99 25 128 -4 189 -38 84 -106 115 -270 124 l-110 6 3
60 c5 131 -57 315 -121 355 -96 62 -469 -43 -628 -175 -25 -21 -64 -59 -86
-86 l-42 -48 -18 41 c-10 23 -36 65 -57 96 -21 30 -37 56 -35 57 2 2 37 26 79
54 133 89 226 211 281 371 59 172 36 351 -58 445 -79 79 -271 134 -419 121
-96 -9 -183 -25 -227 -42 -38 -14 -38 -14 -38 11 0 30 -49 174 -80 235 -64
127 -166 232 -278 287 -51 25 -68 28 -157 28 -94 0 -105 -2 -170 -34 -50 -24
-92 -56 -147 -111 -93 -94 -123 -141 -159 -243 -15 -43 -29 -80 -31 -83 -3 -2
-15 7 -28 21 l-24 25 18 68 c83 321 -73 675 -377 858 -127 75 -309 134 -417
134 -64 0 -70 -2 -94 -30z m204 -141 c41 -11 120 -44 175 -72 79 -41 117 -69
181 -132 88 -87 123 -143 159 -250 45 -135 42 -244 -11 -417 l-27 -88 -31 52
c-25 44 -30 62 -27 105 4 71 -16 157 -51 223 -16 30 -26 46 -22 35 18 -54 44
-161 44 -183 0 -20 -7 -16 -49 35 -89 106 -231 214 -382 293 l-77 40 -11 74
c-6 41 -8 97 -5 123 9 82 36 183 48 183 6 0 45 -9 86 -21z m-195 -483 c135
-36 308 -143 394 -243 44 -51 111 -174 111 -204 0 -17 -2 -17 -34 2 -30 17
-306 111 -306 104 0 -10 75 -47 140 -70 98 -35 181 -80 215 -115 l27 -28 -33
7 c-19 4 -38 6 -44 6 -5 -1 -55 -7 -110 -14 -130 -17 -243 0 -353 55 -147 72
-288 246 -337 417 -20 70 -17 89 15 99 41 12 250 2 315 -16z m1515 -149 c94
-44 200 -180 246 -317 34 -98 23 -306 -20 -411 -4 -8 24 14 61 50 129 126 269
176 465 169 186 -7 267 -50 288 -154 36 -171 -105 -417 -296 -516 -88 -45
-128 -58 -212 -67 l-67 -7 37 -19 c50 -27 137 -101 179 -152 48 -60 106 -177
120 -242 14 -70 7 -192 -16 -248 -47 -117 -190 -166 -376 -129 -182 37 -331
143 -404 289 -19 38 -35 76 -35 84 0 8 -4 11 -10 8 -5 -3 -10 -14 -10 -24 0
-23 -68 -161 -79 -161 -5 0 -28 7 -52 16 -64 22 -153 20 -222 -6 -100 -38
-221 -168 -252 -272 -6 -23 -16 -43 -22 -45 -5 -2 -29 13 -52 34 l-42 38 10
65 c10 70 -2 114 -49 181 -12 16 -24 52 -27 82 -14 138 61 289 198 397 l47 37
-102 -5 c-126 -5 -194 8 -295 58 -131 66 -239 200 -277 345 -63 237 349 404
653 263 71 -32 141 -79 201 -133 l54 -48 -31 59 c-43 82 -71 200 -71 298 1
232 126 437 304 497 57 20 90 16 156 -14z m-781 -399 c60 -33 94 -64 97 -85 1
-8 -32 5 -79 31 -56 31 -83 52 -85 65 -4 27 1 27 67 -11z m-1331 -433 c79 -36
138 -88 187 -164 42 -65 75 -147 75 -184 0 -13 10 -6 34 27 91 119 232 195
359 196 36 0 77 -27 77 -51 0 -6 18 -41 40 -78 47 -79 50 -116 20 -212 -28
-88 -75 -147 -165 -207 -72 -49 -75 -52 -48 -57 128 -26 203 -87 261 -213 35
-77 38 -195 6 -239 -47 -63 -142 -90 -263 -73 -90 12 -169 52 -238 120 l-49
48 -1 -60 c-3 -78 -38 -154 -102 -218 -105 -105 -255 -143 -339 -87 -101 66
-121 242 -48 407 5 13 -9 15 -96 16 -128 1 -199 25 -271 93 -52 48 -97 125
-97 164 0 35 51 108 97 140 94 65 251 86 359 48 l55 -20 -30 34 c-136 155
-149 400 -29 555 45 57 105 61 206 15z m1006 -549 c36 -25 93 -55 126 -67 37
-13 57 -26 53 -33 -29 -50 -70 -97 -95 -107 -16 -6 -49 -35 -74 -63 -43 -48
-46 -50 -57 -31 -7 11 -41 50 -76 87 l-63 67 30 38 c29 38 65 102 76 136 3 9
7 17 9 17 3 0 34 -20 71 -44z m2707 -36 c22 -72 33 -168 24 -219 -7 -41 -8
-42 -114 -95 -171 -84 -293 -177 -384 -291 l-40 -50 6 55 c3 30 14 82 26 115
16 46 17 55 5 40 -38 -48 -57 -110 -61 -200 -4 -76 -9 -99 -36 -152 l-31 -62
-19 47 c-47 121 -60 287 -32 396 61 234 282 419 557 465 78 13 81 12 99 -49z
m-2531 -311 c0 -10 -9 -41 -19 -69 -15 -40 -16 -50 -5 -50 7 0 31 -7 52 -16
34 -13 42 -22 58 -70 l18 -54 -22 -23 c-18 -18 -34 -22 -80 -22 -78 0 -112 22
-112 72 0 35 33 103 51 103 5 0 9 5 9 11 0 11 -6 10 -62 -8 -48 -15 16 128 64
146 30 11 48 3 48 -20z m2942 -90 c13 -6 24 -13 25 -14 2 -1 -7 -35 -18 -75
-78 -282 -309 -472 -574 -473 -75 0 -105 5 -181 32 -50 17 -99 31 -109 31 -15
0 -14 3 6 19 39 30 79 47 177 75 52 14 106 33 120 41 l27 16 -35 -6 c-59 -11
-244 -53 -262 -60 -16 -7 -16 -4 -1 42 24 71 53 112 132 185 102 95 235 161
391 194 76 16 266 12 302 -7z m-2155 -194 c95 -47 169 -120 214 -210 l35 -71
27 56 c14 30 36 67 49 83 l23 27 63 -25 c134 -55 279 -67 397 -34 39 11 81 22
94 26 l23 6 -3 -110 c-4 -103 -6 -114 -42 -186 -29 -59 -54 -91 -109 -141
l-72 -66 64 0 c203 0 405 -144 446 -317 8 -32 14 -64 14 -71 0 -22 -97 -117
-147 -144 -84 -46 -155 -61 -262 -56 -110 5 -187 29 -267 83 l-53 34 22 -47
c18 -39 22 -65 22 -153 0 -104 -1 -107 -43 -191 -53 -108 -118 -170 -200 -194
-52 -15 -60 -15 -109 0 -66 21 -167 112 -202 181 -54 108 -66 237 -31 347 11
34 20 66 20 70 0 4 -24 -9 -52 -28 -120 -79 -317 -104 -440 -55 -79 31 -168
98 -207 157 -27 41 -32 55 -26 87 14 95 99 198 206 251 89 45 162 59 269 54
l87 -4 -52 42 c-170 138 -202 416 -66 567 79 88 174 98 308 32z m-677 -243
c41 -61 80 -92 118 -92 14 0 21 -13 30 -57 7 -32 19 -71 27 -87 9 -16 14 -30
13 -31 -6 -5 -132 -45 -133 -42 -1 1 -18 27 -37 57 -19 30 -67 91 -107 135
-49 55 -76 94 -85 125 -7 25 -10 47 -6 50 5 3 37 5 73 5 l65 0 42 -63z m-1617
-2 c35 -74 87 -133 145 -162 39 -19 63 -23 142 -23 52 0 101 -4 108 -8 7 -5
32 -43 57 -84 24 -42 46 -70 48 -62 2 8 11 44 20 82 37 153 125 268 231 301
53 17 61 17 121 2 80 -20 163 -20 235 -1 30 8 61 15 68 15 7 0 27 -30 44 -67
27 -60 32 -82 36 -178 3 -94 1 -119 -18 -175 -28 -84 -90 -180 -151 -233 l-48
-42 127 0 c108 0 134 -3 173 -21 43 -20 46 -25 52 -67 15 -111 88 -214 204
-289 35 -22 63 -44 63 -48 0 -18 -63 -90 -108 -124 -200 -146 -432 -151 -644
-12 -23 15 -23 13 11 -56 35 -70 36 -74 36 -193 0 -120 0 -122 -37 -196 -114
-230 -300 -286 -474 -144 -86 71 -154 206 -169 335 -6 49 6 155 22 197 3 8
-16 -1 -42 -22 -196 -149 -450 -168 -631 -45 -33 21 -70 56 -84 76 -71 106 15
314 168 413 71 45 182 81 273 88 l80 6 -53 30 c-29 17 -68 41 -86 55 -49 37
-120 142 -156 230 -29 73 -31 84 -31 217 0 160 12 203 65 230 37 19 102 33
147 31 28 -1 34 -7 56 -56z m3382 -192 c-8 -37 -47 -84 -76 -91 -20 -5 -18 4
9 36 12 14 18 15 25 5 6 -9 7 -7 3 5 -4 11 3 31 15 48 26 37 32 37 24 -3z
m-1964 -38 c7 -18 15 -27 22 -23 7 4 5 -2 -3 -12 -8 -10 -10 -16 -4 -12 18 11
95 -74 100 -110 1 -7 -2 -13 -7 -13 -5 0 -9 7 -9 15 0 8 -3 14 -7 13 -5 -2
-29 20 -54 47 -34 37 -48 60 -51 88 -5 45 -1 47 13 7z m1 -269 c18 -16 30 -32
27 -36 -5 -4 -64 17 -88 32 -7 4 9 33 19 33 5 0 24 -13 42 -29z m2206 -475
c15 -8 38 -26 52 -40 l24 -27 -19 -37 c-11 -20 -53 -71 -95 -112 -116 -116
-218 -156 -375 -148 -65 3 -92 10 -131 31 -27 15 -66 35 -86 45 -21 9 -38 24
-38 33 0 23 112 59 190 60 48 1 58 3 40 9 -24 8 -24 8 6 9 52 2 183 39 234 67
26 14 74 48 106 74 33 27 60 49 62 49 2 1 15 -5 30 -13z m-1740 -151 c7 -3 12
-22 12 -50 l0 -45 -50 37 c-63 47 -68 77 -12 68 20 -4 43 -8 50 -10z m1112
-42 c-38 -16 -41 -14 -34 14 5 19 9 20 36 11 l30 -11 -32 -14z m-913 -35 c-3
-7 -5 -2 -5 12 0 14 2 19 5 13 2 -7 2 -19 0 -25z m-267 -167 l60 -32 0 -66 0
-66 -32 41 c-39 48 -104 101 -170 135 l-48 25 35 31 36 31 29 -33 c16 -19 56
-48 90 -66z m314 53 c5 -14 4 -15 -9 -4 -17 14 -19 20 -6 20 5 0 12 -7 15 -16z
m8 -126 c-7 -7 -12 -8 -12 -2 0 14 12 26 19 19 2 -3 -1 -11 -7 -17z m-541 -46
c66 -32 121 -83 186 -170 31 -43 66 -87 77 -100 11 -12 21 -32 23 -45 2 -17 1
-19 -6 -7 -5 8 -7 18 -4 24 3 5 1 6 -6 2 -6 -4 -8 -12 -5 -18 5 -8 1 -9 -12
-4 -22 9 -25 10 -77 21 -24 5 -34 11 -27 15 18 11 -42 27 -125 34 -67 6 -69 5
-37 -9 18 -8 49 -17 68 -21 62 -12 12 -26 -75 -23 -62 3 -89 10 -143 37 -79
39 -168 130 -217 221 l-31 60 22 4 c13 3 95 4 183 4 144 -2 165 -4 206 -25z"/>
        <path d="M5662 7074 c-27 -19 -29 -57 -3 -90 l19 -24 32 30 c34 32 35 62 2 88
-20 15 -23 15 -50 -4z"/>
        <path d="M5493 7028 c-16 -18 -16 -22 -2 -46 19 -34 44 -39 59 -12 27 50 -20
98 -57 58z"/>
        <path d="M5930 6900 c-23 -23 -24 -33 -10 -61 12 -22 59 -26 78 -7 19 19 15
66 -7 78 -28 14 -38 13 -61 -10z"/>
        <path d="M5284 6845 c-15 -23 -15 -27 0 -50 19 -29 47 -32 70 -9 19 18 20 38
6 65 -15 27 -56 24 -76 -6z"/>
        <path d="M5583 6745 c-38 -26 -37 -92 1 -117 43 -29 116 16 116 71 0 52 -69
80 -117 46z"/>
        <path d="M5446 6499 c-27 -21 -34 -57 -14 -77 16 -16 44 1 63 38 19 37 19 37
-4 49 -14 8 -25 6 -45 -10z"/>
        <path d="M5791 6496 c-9 -11 -8 -18 4 -30 21 -20 29 -20 21 0 -5 12 -1 14 15
9 18 -6 20 -5 10 14 -13 24 -34 27 -50 7z"/>
        <path d="M3654 6455 c-4 -17 -1 -32 11 -45 30 -34 63 -2 45 45 -13 34 -47 33
-56 0z"/>
        <path d="M3900 6429 c-16 -28 -5 -49 24 -49 28 0 49 29 40 54 -9 23 -51 20
-64 -5z"/>
        <path d="M3560 6397 c0 -27 34 -64 45 -48 8 13 -16 63 -32 69 -8 2 -13 -6 -13
-21z"/>
        <path d="M3722 6289 c-18 -5 -30 -14 -27 -19 4 -6 0 -10 -8 -10 -9 0 -12 -9
-9 -31 3 -22 13 -35 37 -46 18 -9 38 -25 44 -37 10 -20 11 -20 8 -1 -4 30 14
44 43 33 24 -9 24 -9 5 12 -20 23 -21 21 20 44 29 15 29 16 4 10 -22 -5 -27
-1 -33 20 -4 17 -11 23 -21 20 -8 -4 -15 -1 -15 5 0 13 -3 13 -48 0z"/>
        <path d="M3475 6254 c-18 -19 -19 -26 -2 -46 9 -12 19 -13 45 -6 33 9 41 28
20 45 -25 19 -48 22 -63 7z"/>
        <path d="M3875 6141 c-3 -6 3 -15 14 -21 21 -11 37 2 26 20 -8 13 -32 13 -40
1z"/>
        <path d="M3660 6025 c-16 -19 -5 -47 17 -43 11 2 18 12 18 27 0 29 -17 37 -35
16z"/>
        <path d="M4705 6020 c-3 -5 -1 -10 4 -10 6 0 11 5 11 10 0 6 -2 10 -4 10 -3 0
-8 -4 -11 -10z"/>
        <path d="M5902 5284 c-30 -21 -28 -77 4 -82 28 -4 56 30 52 65 -4 33 -24 40
-56 17z"/>
        <path d="M5615 5277 c-38 -28 14 -97 54 -72 16 9 13 51 -5 69 -19 19 -25 20
-49 3z"/>
        <path d="M5740 5050 c-28 -28 -25 -60 10 -93 l30 -29 30 22 c23 16 30 29 30
55 0 61 -58 87 -100 45z"/>
        <path d="M5500 5005 c-15 -18 -10 -45 12 -58 22 -15 68 6 68 31 0 39 -55 58
-80 27z"/>
        <path d="M6003 4989 c-34 -12 -36 -27 -8 -55 33 -32 78 -31 83 4 6 41 -32 67
-75 51z"/>
        <path d="M5751 4773 c-19 -23 -20 -29 -7 -47 26 -40 76 -28 76 19 0 20 -27 55
-43 55 -3 0 -15 -12 -26 -27z"/>
        <path d="M3897 5032 c-21 -23 -21 -41 -1 -70 19 -27 28 -28 54 -2 24 24 26 53
4 74 -20 21 -37 20 -57 -2z"/>
        <path d="M3771 4755 c-21 -19 -29 -33 -27 -48 3 -12 5 -25 5 -29 1 -4 12 -15
26 -24 20 -13 30 -14 60 -4 19 6 36 17 37 23 0 7 2 23 4 37 2 14 4 33 6 44 2
15 -5 19 -38 23 -34 3 -47 -1 -73 -22z"/>
        <path d="M4058 4708 l-26 -21 30 -29 c22 -21 35 -27 51 -22 39 12 49 50 21 78
-21 21 -43 19 -76 -6z"/>
        <path d="M3499 4679 c-27 -27 -22 -70 11 -86 30 -15 57 -1 80 41 14 26 14 28
-9 47 -30 25 -56 24 -82 -2z"/>
        <path d="M3782 4468 c-7 -7 -12 -24 -12 -38 0 -47 42 -66 75 -34 18 18 13 63
-8 76 -18 11 -41 10 -55 -4z"/>
        <path d="M4730 5245 c7 -8 17 -15 22 -15 5 0 3 7 -6 15 -8 8 -18 15 -22 15 -3
0 -1 -7 6 -15z"/>
    </g>
</svg>
